<svg xmlns="http://www.w3.org/2000/svg" xmlns:xlink="http://www.w3.org/1999/xlink" width="500" zoomAndPan="magnify" viewBox="0 0 375 225" height="300" preserveAspectRatio="xMidYMid meet" version="1.0"><defs><g/></defs><g fill="#ffffff" fill-opacity="1"><g transform="translate(177.902011, 102.853582)"><g><path d="M 27.8125 -23.890625 C 26.882812 -23.828125 25.894531 -23.796875 24.84375 -23.796875 C 23.800781 -23.796875 22.25 -23.875 20.1875 -24.03125 L 20.1875 0 L 7.953125 0 L 7.953125 -61.78125 C 12.265625 -62.332031 17.5625 -62.609375 23.84375 -62.609375 C 32.40625 -62.609375 38.785156 -61.03125 42.984375 -57.875 C 47.191406 -54.71875 49.296875 -49.84375 49.296875 -43.25 C 49.296875 -38.132812 47.375 -33.757812 43.53125 -30.125 C 42.257812 -28.957031 40.8125 -27.941406 39.1875 -27.078125 L 48.609375 -7.203125 C 50.453125 -3.109375 51.867188 -0.675781 52.859375 0.09375 L 52.625 0.328125 C 49.632812 -0.171875 44.9375 -0.15625 38.53125 0.375 Z M 24.71875 -51.703125 C 23.144531 -51.703125 21.632812 -51.625 20.1875 -51.46875 L 20.1875 -33.828125 C 21.695312 -33.609375 23.46875 -33.5 25.5 -33.5 C 27.53125 -33.5 29.238281 -33.675781 30.625 -34.03125 C 32.019531 -34.382812 33.222656 -34.929688 34.234375 -35.671875 C 36.421875 -37.304688 37.515625 -39.753906 37.515625 -43.015625 C 37.515625 -46.273438 36.375 -48.570312 34.09375 -49.90625 C 31.96875 -51.101562 28.84375 -51.703125 24.71875 -51.703125 Z M 24.71875 -51.703125 "/></g></g></g><g fill="#ffffff" fill-opacity="1"><g transform="translate(231.59298, 102.853582)"><g><path d="M 20.84375 0 C 21.238281 -1.195312 21.4375 -4 21.4375 -8.40625 L 21.4375 -21.25 C 16.101562 -32.988281 12.695312 -40.3125 11.21875 -43.21875 C 9.75 -46.132812 8.503906 -48.4375 7.484375 -50.125 C 4.285156 -55.550781 2.351562 -58.664062 1.6875 -59.46875 C 1.019531 -60.269531 0.347656 -60.929688 -0.328125 -61.453125 L 15.609375 -61.453125 C 15.953125 -60.835938 16.414062 -59.925781 17 -58.71875 L 28.1875 -35.109375 C 28.707031 -36.410156 29.320312 -37.859375 30.03125 -39.453125 C 36.75 -53.898438 40.15625 -61.234375 40.25 -61.453125 L 55.484375 -61.453125 C 53.921875 -60.191406 52 -57.539062 49.71875 -53.5 C 49.007812 -52.300781 48.300781 -50.929688 47.59375 -49.390625 L 37.140625 -27.625 C 35.972656 -25.007812 34.972656 -22.65625 34.140625 -20.5625 L 34.140625 -7.296875 C 34.140625 -4.222656 34.328125 -1.789062 34.703125 0 Z M 20.84375 0 "/></g></g></g><g fill="#ffffff" fill-opacity="1"><g transform="translate(285.283948, 102.853582)"><g><path d="M 38.859375 -11.09375 C 40.765625 -11.09375 42.085938 -11.273438 42.828125 -11.640625 L 43.015625 -11.59375 L 42.546875 0 L 7.953125 0 L 7.953125 -61.78125 C 8.773438 -61.71875 9.695312 -61.671875 10.71875 -61.640625 L 13.953125 -61.546875 C 16.109375 -61.484375 18.445312 -61.453125 20.96875 -61.453125 C 28.03125 -61.453125 35.007812 -61.578125 41.90625 -61.828125 C 41.570312 -59.109375 41.40625 -55.488281 41.40625 -50.96875 C 41.40625 -50.46875 41.429688 -50.097656 41.484375 -49.859375 L 41.40625 -49.71875 C 39.800781 -50.175781 37.519531 -50.40625 34.5625 -50.40625 L 20 -50.40625 L 20 -38.625 L 30.953125 -38.625 C 34.335938 -38.625 36.375 -38.71875 37.0625 -38.90625 L 37.1875 -27.484375 C 35.707031 -27.640625 33.800781 -27.71875 31.46875 -27.71875 L 20 -27.71875 L 20 -11.09375 Z M 38.859375 -11.09375 "/></g></g></g><g fill="#ffffff" fill-opacity="1"><g transform="translate(331.260409, 102.853582)"><g><path d="M 16.953125 0 C 12.429688 0 9.429688 0.09375 7.953125 0.28125 L 7.953125 -61.734375 C 8.691406 -61.546875 10.222656 -61.453125 12.546875 -61.453125 C 14.867188 -61.453125 17.570312 -61.515625 20.65625 -61.640625 L 20.65625 -11.09375 L 30.21875 -11.09375 C 32.988281 -11.09375 35.207031 -11.179688 36.875 -11.359375 C 36.65625 -4.148438 36.546875 -0.410156 36.546875 -0.140625 L 36.546875 0.328125 C 33.523438 0.109375 28.457031 0 21.34375 0 Z M 16.953125 0 "/></g></g></g><path stroke-linecap="butt" transform="matrix(0.6, 0, 0, 0.600994, 4.235153, 19.752048)" fill="none" stroke-linejoin="round" d="M 39.477872 243.018578 L 71.255217 264.811911 L 101.255218 216.058022 L 147.166678 255.757896 L 181.632826 41.217385 L 16.95834 175.00622 L 68.253915 196.793054 Z M 39.477872 243.018578 " stroke="#ffffff" stroke-width="10" stroke-opacity="1" stroke-miterlimit="4"/><path stroke-linecap="butt" transform="matrix(0.6, 0, 0, 0.600994, 4.235153, 19.752048)" fill-opacity="1" fill="#ffffff" fill-rule="nonzero" stroke-linejoin="round" d="M 51.795581 187.485552 L 146.274751 104.770981 L 120.428396 229.239316 L 103.970062 214.433109 L 72.433602 261.640081 L 42.811205 241.959135 L 70.903654 195.324132 Z M 51.795581 187.485552 " stroke="#ffffff" stroke-width="5.265" stroke-opacity="1" stroke-miterlimit="4"/><g fill="#ffffff" fill-opacity="1"><g transform="translate(177.874855, 44.090911)"><g><path d="M -34.234375 -0.1875 C -33.242188 -0.0625 -31.625 0 -29.375 0 L -24.296875 0 C -23.460938 0 -22.707031 -0.03125 -22.03125 -0.09375 L -21.984375 0 C -22.109375 0.21875 -22.171875 0.460938 -22.171875 0.734375 C -22.171875 1.015625 -22.144531 1.304688 -22.09375 1.609375 C -22.050781 1.921875 -21.921875 2.476562 -21.703125 3.28125 C -21.492188 4.082031 -21.160156 5.238281 -20.703125 6.75 L -18.75 12.9375 L -1.578125 61.625 C -3.484375 61.5 -5.910156 61.4375 -8.859375 61.4375 C -11.816406 61.4375 -13.710938 61.5625 -14.546875 61.8125 L -28.453125 19.8125 L -40.65625 61.625 C -42.5 61.5 -44.773438 61.4375 -47.484375 61.4375 C -51.179688 61.4375 -53.335938 61.5625 -53.953125 61.8125 L -37.09375 13.078125 C -37.09375 13.078125 -36.554688 11.273438 -35.484375 7.671875 C -34.585938 4.585938 -34.140625 2.59375 -34.140625 1.6875 C -34.140625 0.78125 -34.203125 0.203125 -34.328125 -0.046875 Z M -34.234375 -0.1875 "/></g></g></g><g fill="#ffffff" fill-opacity="1"><g transform="translate(176.458001, 179.740313)"><g><path d="M 8.359375 0 C 8.546875 -1.050781 8.640625 -2.191406 8.640625 -3.421875 L 8.640625 -61.453125 L 17.875 -61.453125 L 42.375 -22.921875 L 42.375 -58.3125 C 42.375 -60 42.21875 -61.046875 41.90625 -61.453125 L 54.375 -61.453125 C 54.226562 -60.222656 54.15625 -58.867188 54.15625 -57.390625 L 54.15625 0 L 44.546875 0 L 20.421875 -37.015625 L 20.421875 0 Z M 8.359375 0 "/></g></g></g><g fill="#ffffff" fill-opacity="1"><g transform="translate(237.817286, 179.740313)"><g><path d="M 8.359375 0 C 8.546875 -1.050781 8.640625 -2.191406 8.640625 -3.421875 L 8.640625 -61.453125 L 17.875 -61.453125 L 42.375 -22.921875 L 42.375 -58.3125 C 42.375 -60 42.21875 -61.046875 41.90625 -61.453125 L 54.375 -61.453125 C 54.226562 -60.222656 54.15625 -58.867188 54.15625 -57.390625 L 54.15625 0 L 44.546875 0 L 20.421875 -37.015625 L 20.421875 0 Z M 8.359375 0 "/></g></g></g><g fill="#ffffff" fill-opacity="1"><g transform="translate(299.176571, 179.740313)"><g><path d="M 38.859375 -11.09375 C 40.765625 -11.09375 42.085938 -11.273438 42.828125 -11.640625 L 43.015625 -11.59375 L 42.546875 0 L 7.953125 0 L 7.953125 -61.78125 C 8.773438 -61.71875 9.695312 -61.671875 10.71875 -61.640625 L 13.953125 -61.546875 C 16.109375 -61.484375 18.445312 -61.453125 20.96875 -61.453125 C 28.03125 -61.453125 35.007812 -61.578125 41.90625 -61.828125 C 41.570312 -59.109375 41.40625 -55.488281 41.40625 -50.96875 C 41.40625 -50.46875 41.429688 -50.097656 41.484375 -49.859375 L 41.40625 -49.71875 C 39.800781 -50.175781 37.519531 -50.40625 34.5625 -50.40625 L 20 -50.40625 L 20 -38.625 L 30.953125 -38.625 C 34.335938 -38.625 36.375 -38.71875 37.0625 -38.90625 L 37.1875 -27.484375 C 35.707031 -27.640625 33.800781 -27.71875 31.46875 -27.71875 L 20 -27.71875 L 20 -11.09375 Z M 38.859375 -11.09375 "/></g></g></g><g fill="#ffffff" fill-opacity="1"><g transform="translate(178.495949, 119.327186)"><g><path d="M -34.234375 -0.1875 C -33.242188 -0.0625 -31.625 0 -29.375 0 L -24.296875 0 C -23.460938 0 -22.707031 -0.03125 -22.03125 -0.09375 L -21.984375 0 C -22.109375 0.21875 -22.171875 0.460938 -22.171875 0.734375 C -22.171875 1.015625 -22.144531 1.304688 -22.09375 1.609375 C -22.050781 1.921875 -21.921875 2.476562 -21.703125 3.28125 C -21.492188 4.082031 -21.160156 5.238281 -20.703125 6.75 L -18.75 12.9375 L -1.578125 61.625 C -3.484375 61.5 -5.910156 61.4375 -8.859375 61.4375 C -11.816406 61.4375 -13.710938 61.5625 -14.546875 61.8125 L -28.453125 19.8125 L -40.65625 61.625 C -42.5 61.5 -44.773438 61.4375 -47.484375 61.4375 C -51.179688 61.4375 -53.335938 61.5625 -53.953125 61.8125 L -37.09375 13.078125 C -37.09375 13.078125 -36.554688 11.273438 -35.484375 7.671875 C -34.585938 4.585938 -34.140625 2.59375 -34.140625 1.6875 C -34.140625 0.78125 -34.203125 0.203125 -34.328125 -0.046875 Z M -34.234375 -0.1875 "/></g></g></g></svg>